%TF.GenerationSoftware,KiCad,Pcbnew,7.0.6*%
%TF.CreationDate,2023-08-09T00:10:05+09:00*%
%TF.ProjectId,sample_project,73616d70-6c65-45f7-9072-6f6a6563742e,rev?*%
%TF.SameCoordinates,Original*%
%TF.FileFunction,Legend,Top*%
%TF.FilePolarity,Positive*%
%FSLAX46Y46*%
G04 Gerber Fmt 4.6, Leading zero omitted, Abs format (unit mm)*
G04 Created by KiCad (PCBNEW 7.0.6) date 2023-08-09 00:10:05*
%MOMM*%
%LPD*%
G01*
G04 APERTURE LIST*
%ADD10C,0.150000*%
%ADD11C,0.120000*%
G04 APERTURE END LIST*
D10*
X160474819Y-97956666D02*
X159998628Y-98289999D01*
X160474819Y-98528094D02*
X159474819Y-98528094D01*
X159474819Y-98528094D02*
X159474819Y-98147142D01*
X159474819Y-98147142D02*
X159522438Y-98051904D01*
X159522438Y-98051904D02*
X159570057Y-98004285D01*
X159570057Y-98004285D02*
X159665295Y-97956666D01*
X159665295Y-97956666D02*
X159808152Y-97956666D01*
X159808152Y-97956666D02*
X159903390Y-98004285D01*
X159903390Y-98004285D02*
X159951009Y-98051904D01*
X159951009Y-98051904D02*
X159998628Y-98147142D01*
X159998628Y-98147142D02*
X159998628Y-98528094D01*
X159808152Y-97099523D02*
X160474819Y-97099523D01*
X159427200Y-97337618D02*
X160141485Y-97575713D01*
X160141485Y-97575713D02*
X160141485Y-96956666D01*
X156043333Y-103229580D02*
X155995714Y-103277200D01*
X155995714Y-103277200D02*
X155852857Y-103324819D01*
X155852857Y-103324819D02*
X155757619Y-103324819D01*
X155757619Y-103324819D02*
X155614762Y-103277200D01*
X155614762Y-103277200D02*
X155519524Y-103181961D01*
X155519524Y-103181961D02*
X155471905Y-103086723D01*
X155471905Y-103086723D02*
X155424286Y-102896247D01*
X155424286Y-102896247D02*
X155424286Y-102753390D01*
X155424286Y-102753390D02*
X155471905Y-102562914D01*
X155471905Y-102562914D02*
X155519524Y-102467676D01*
X155519524Y-102467676D02*
X155614762Y-102372438D01*
X155614762Y-102372438D02*
X155757619Y-102324819D01*
X155757619Y-102324819D02*
X155852857Y-102324819D01*
X155852857Y-102324819D02*
X155995714Y-102372438D01*
X155995714Y-102372438D02*
X156043333Y-102420057D01*
X156424286Y-102420057D02*
X156471905Y-102372438D01*
X156471905Y-102372438D02*
X156567143Y-102324819D01*
X156567143Y-102324819D02*
X156805238Y-102324819D01*
X156805238Y-102324819D02*
X156900476Y-102372438D01*
X156900476Y-102372438D02*
X156948095Y-102420057D01*
X156948095Y-102420057D02*
X156995714Y-102515295D01*
X156995714Y-102515295D02*
X156995714Y-102610533D01*
X156995714Y-102610533D02*
X156948095Y-102753390D01*
X156948095Y-102753390D02*
X156376667Y-103324819D01*
X156376667Y-103324819D02*
X156995714Y-103324819D01*
X137960057Y-115665238D02*
X137912438Y-115760476D01*
X137912438Y-115760476D02*
X137817200Y-115855714D01*
X137817200Y-115855714D02*
X137674342Y-115998571D01*
X137674342Y-115998571D02*
X137626723Y-116093809D01*
X137626723Y-116093809D02*
X137626723Y-116189047D01*
X137864819Y-116141428D02*
X137817200Y-116236666D01*
X137817200Y-116236666D02*
X137721961Y-116331904D01*
X137721961Y-116331904D02*
X137531485Y-116379523D01*
X137531485Y-116379523D02*
X137198152Y-116379523D01*
X137198152Y-116379523D02*
X137007676Y-116331904D01*
X137007676Y-116331904D02*
X136912438Y-116236666D01*
X136912438Y-116236666D02*
X136864819Y-116141428D01*
X136864819Y-116141428D02*
X136864819Y-115950952D01*
X136864819Y-115950952D02*
X136912438Y-115855714D01*
X136912438Y-115855714D02*
X137007676Y-115760476D01*
X137007676Y-115760476D02*
X137198152Y-115712857D01*
X137198152Y-115712857D02*
X137531485Y-115712857D01*
X137531485Y-115712857D02*
X137721961Y-115760476D01*
X137721961Y-115760476D02*
X137817200Y-115855714D01*
X137817200Y-115855714D02*
X137864819Y-115950952D01*
X137864819Y-115950952D02*
X137864819Y-116141428D01*
X137864819Y-114760476D02*
X137864819Y-115331904D01*
X137864819Y-115046190D02*
X136864819Y-115046190D01*
X136864819Y-115046190D02*
X137007676Y-115141428D01*
X137007676Y-115141428D02*
X137102914Y-115236666D01*
X137102914Y-115236666D02*
X137150533Y-115331904D01*
X137614819Y-97956666D02*
X137138628Y-98289999D01*
X137614819Y-98528094D02*
X136614819Y-98528094D01*
X136614819Y-98528094D02*
X136614819Y-98147142D01*
X136614819Y-98147142D02*
X136662438Y-98051904D01*
X136662438Y-98051904D02*
X136710057Y-98004285D01*
X136710057Y-98004285D02*
X136805295Y-97956666D01*
X136805295Y-97956666D02*
X136948152Y-97956666D01*
X136948152Y-97956666D02*
X137043390Y-98004285D01*
X137043390Y-98004285D02*
X137091009Y-98051904D01*
X137091009Y-98051904D02*
X137138628Y-98147142D01*
X137138628Y-98147142D02*
X137138628Y-98528094D01*
X137614819Y-97004285D02*
X137614819Y-97575713D01*
X137614819Y-97289999D02*
X136614819Y-97289999D01*
X136614819Y-97289999D02*
X136757676Y-97385237D01*
X136757676Y-97385237D02*
X136852914Y-97480475D01*
X136852914Y-97480475D02*
X136900533Y-97575713D01*
X126666666Y-98284819D02*
X126666666Y-98999104D01*
X126666666Y-98999104D02*
X126619047Y-99141961D01*
X126619047Y-99141961D02*
X126523809Y-99237200D01*
X126523809Y-99237200D02*
X126380952Y-99284819D01*
X126380952Y-99284819D02*
X126285714Y-99284819D01*
X127666666Y-99284819D02*
X127095238Y-99284819D01*
X127380952Y-99284819D02*
X127380952Y-98284819D01*
X127380952Y-98284819D02*
X127285714Y-98427676D01*
X127285714Y-98427676D02*
X127190476Y-98522914D01*
X127190476Y-98522914D02*
X127095238Y-98570533D01*
X156514819Y-88368094D02*
X155514819Y-88368094D01*
X155514819Y-88368094D02*
X155514819Y-88129999D01*
X155514819Y-88129999D02*
X155562438Y-87987142D01*
X155562438Y-87987142D02*
X155657676Y-87891904D01*
X155657676Y-87891904D02*
X155752914Y-87844285D01*
X155752914Y-87844285D02*
X155943390Y-87796666D01*
X155943390Y-87796666D02*
X156086247Y-87796666D01*
X156086247Y-87796666D02*
X156276723Y-87844285D01*
X156276723Y-87844285D02*
X156371961Y-87891904D01*
X156371961Y-87891904D02*
X156467200Y-87987142D01*
X156467200Y-87987142D02*
X156514819Y-88129999D01*
X156514819Y-88129999D02*
X156514819Y-88368094D01*
X155610057Y-87415713D02*
X155562438Y-87368094D01*
X155562438Y-87368094D02*
X155514819Y-87272856D01*
X155514819Y-87272856D02*
X155514819Y-87034761D01*
X155514819Y-87034761D02*
X155562438Y-86939523D01*
X155562438Y-86939523D02*
X155610057Y-86891904D01*
X155610057Y-86891904D02*
X155705295Y-86844285D01*
X155705295Y-86844285D02*
X155800533Y-86844285D01*
X155800533Y-86844285D02*
X155943390Y-86891904D01*
X155943390Y-86891904D02*
X156514819Y-87463332D01*
X156514819Y-87463332D02*
X156514819Y-86844285D01*
X145234819Y-97956666D02*
X144758628Y-98289999D01*
X145234819Y-98528094D02*
X144234819Y-98528094D01*
X144234819Y-98528094D02*
X144234819Y-98147142D01*
X144234819Y-98147142D02*
X144282438Y-98051904D01*
X144282438Y-98051904D02*
X144330057Y-98004285D01*
X144330057Y-98004285D02*
X144425295Y-97956666D01*
X144425295Y-97956666D02*
X144568152Y-97956666D01*
X144568152Y-97956666D02*
X144663390Y-98004285D01*
X144663390Y-98004285D02*
X144711009Y-98051904D01*
X144711009Y-98051904D02*
X144758628Y-98147142D01*
X144758628Y-98147142D02*
X144758628Y-98528094D01*
X144330057Y-97575713D02*
X144282438Y-97528094D01*
X144282438Y-97528094D02*
X144234819Y-97432856D01*
X144234819Y-97432856D02*
X144234819Y-97194761D01*
X144234819Y-97194761D02*
X144282438Y-97099523D01*
X144282438Y-97099523D02*
X144330057Y-97051904D01*
X144330057Y-97051904D02*
X144425295Y-97004285D01*
X144425295Y-97004285D02*
X144520533Y-97004285D01*
X144520533Y-97004285D02*
X144663390Y-97051904D01*
X144663390Y-97051904D02*
X145234819Y-97623332D01*
X145234819Y-97623332D02*
X145234819Y-97004285D01*
X140533333Y-103289580D02*
X140485714Y-103337200D01*
X140485714Y-103337200D02*
X140342857Y-103384819D01*
X140342857Y-103384819D02*
X140247619Y-103384819D01*
X140247619Y-103384819D02*
X140104762Y-103337200D01*
X140104762Y-103337200D02*
X140009524Y-103241961D01*
X140009524Y-103241961D02*
X139961905Y-103146723D01*
X139961905Y-103146723D02*
X139914286Y-102956247D01*
X139914286Y-102956247D02*
X139914286Y-102813390D01*
X139914286Y-102813390D02*
X139961905Y-102622914D01*
X139961905Y-102622914D02*
X140009524Y-102527676D01*
X140009524Y-102527676D02*
X140104762Y-102432438D01*
X140104762Y-102432438D02*
X140247619Y-102384819D01*
X140247619Y-102384819D02*
X140342857Y-102384819D01*
X140342857Y-102384819D02*
X140485714Y-102432438D01*
X140485714Y-102432438D02*
X140533333Y-102480057D01*
X141485714Y-103384819D02*
X140914286Y-103384819D01*
X141200000Y-103384819D02*
X141200000Y-102384819D01*
X141200000Y-102384819D02*
X141104762Y-102527676D01*
X141104762Y-102527676D02*
X141009524Y-102622914D01*
X141009524Y-102622914D02*
X140914286Y-102670533D01*
X152854819Y-97956666D02*
X152378628Y-98289999D01*
X152854819Y-98528094D02*
X151854819Y-98528094D01*
X151854819Y-98528094D02*
X151854819Y-98147142D01*
X151854819Y-98147142D02*
X151902438Y-98051904D01*
X151902438Y-98051904D02*
X151950057Y-98004285D01*
X151950057Y-98004285D02*
X152045295Y-97956666D01*
X152045295Y-97956666D02*
X152188152Y-97956666D01*
X152188152Y-97956666D02*
X152283390Y-98004285D01*
X152283390Y-98004285D02*
X152331009Y-98051904D01*
X152331009Y-98051904D02*
X152378628Y-98147142D01*
X152378628Y-98147142D02*
X152378628Y-98528094D01*
X151854819Y-97623332D02*
X151854819Y-97004285D01*
X151854819Y-97004285D02*
X152235771Y-97337618D01*
X152235771Y-97337618D02*
X152235771Y-97194761D01*
X152235771Y-97194761D02*
X152283390Y-97099523D01*
X152283390Y-97099523D02*
X152331009Y-97051904D01*
X152331009Y-97051904D02*
X152426247Y-97004285D01*
X152426247Y-97004285D02*
X152664342Y-97004285D01*
X152664342Y-97004285D02*
X152759580Y-97051904D01*
X152759580Y-97051904D02*
X152807200Y-97099523D01*
X152807200Y-97099523D02*
X152854819Y-97194761D01*
X152854819Y-97194761D02*
X152854819Y-97480475D01*
X152854819Y-97480475D02*
X152807200Y-97575713D01*
X152807200Y-97575713D02*
X152759580Y-97623332D01*
X153200057Y-115665238D02*
X153152438Y-115760476D01*
X153152438Y-115760476D02*
X153057200Y-115855714D01*
X153057200Y-115855714D02*
X152914342Y-115998571D01*
X152914342Y-115998571D02*
X152866723Y-116093809D01*
X152866723Y-116093809D02*
X152866723Y-116189047D01*
X153104819Y-116141428D02*
X153057200Y-116236666D01*
X153057200Y-116236666D02*
X152961961Y-116331904D01*
X152961961Y-116331904D02*
X152771485Y-116379523D01*
X152771485Y-116379523D02*
X152438152Y-116379523D01*
X152438152Y-116379523D02*
X152247676Y-116331904D01*
X152247676Y-116331904D02*
X152152438Y-116236666D01*
X152152438Y-116236666D02*
X152104819Y-116141428D01*
X152104819Y-116141428D02*
X152104819Y-115950952D01*
X152104819Y-115950952D02*
X152152438Y-115855714D01*
X152152438Y-115855714D02*
X152247676Y-115760476D01*
X152247676Y-115760476D02*
X152438152Y-115712857D01*
X152438152Y-115712857D02*
X152771485Y-115712857D01*
X152771485Y-115712857D02*
X152961961Y-115760476D01*
X152961961Y-115760476D02*
X153057200Y-115855714D01*
X153057200Y-115855714D02*
X153104819Y-115950952D01*
X153104819Y-115950952D02*
X153104819Y-116141428D01*
X152200057Y-115331904D02*
X152152438Y-115284285D01*
X152152438Y-115284285D02*
X152104819Y-115189047D01*
X152104819Y-115189047D02*
X152104819Y-114950952D01*
X152104819Y-114950952D02*
X152152438Y-114855714D01*
X152152438Y-114855714D02*
X152200057Y-114808095D01*
X152200057Y-114808095D02*
X152295295Y-114760476D01*
X152295295Y-114760476D02*
X152390533Y-114760476D01*
X152390533Y-114760476D02*
X152533390Y-114808095D01*
X152533390Y-114808095D02*
X153104819Y-115379523D01*
X153104819Y-115379523D02*
X153104819Y-114760476D01*
X133654819Y-88368094D02*
X132654819Y-88368094D01*
X132654819Y-88368094D02*
X132654819Y-88129999D01*
X132654819Y-88129999D02*
X132702438Y-87987142D01*
X132702438Y-87987142D02*
X132797676Y-87891904D01*
X132797676Y-87891904D02*
X132892914Y-87844285D01*
X132892914Y-87844285D02*
X133083390Y-87796666D01*
X133083390Y-87796666D02*
X133226247Y-87796666D01*
X133226247Y-87796666D02*
X133416723Y-87844285D01*
X133416723Y-87844285D02*
X133511961Y-87891904D01*
X133511961Y-87891904D02*
X133607200Y-87987142D01*
X133607200Y-87987142D02*
X133654819Y-88129999D01*
X133654819Y-88129999D02*
X133654819Y-88368094D01*
X133654819Y-86844285D02*
X133654819Y-87415713D01*
X133654819Y-87129999D02*
X132654819Y-87129999D01*
X132654819Y-87129999D02*
X132797676Y-87225237D01*
X132797676Y-87225237D02*
X132892914Y-87320475D01*
X132892914Y-87320475D02*
X132940533Y-87415713D01*
D11*
%TO.C,R4*%
X160020000Y-94920000D02*
X160020000Y-95870000D01*
X160940000Y-95870000D02*
X159100000Y-95870000D01*
X159100000Y-95870000D02*
X159100000Y-99710000D01*
X160940000Y-99710000D02*
X160940000Y-95870000D01*
X159100000Y-99710000D02*
X160940000Y-99710000D01*
X160020000Y-100660000D02*
X160020000Y-99710000D01*
%TO.C,C2*%
X158744775Y-108155000D02*
X158244775Y-108155000D01*
X158494775Y-108405000D02*
X158494775Y-107905000D01*
X155940000Y-109260000D02*
X155940000Y-107720000D01*
X155940000Y-105640000D02*
X155940000Y-104100000D01*
X155900000Y-109260000D02*
X155900000Y-107720000D01*
X155900000Y-105640000D02*
X155900000Y-104100000D01*
X155860000Y-109259000D02*
X155860000Y-107720000D01*
X155860000Y-105640000D02*
X155860000Y-104101000D01*
X155820000Y-109258000D02*
X155820000Y-107720000D01*
X155820000Y-105640000D02*
X155820000Y-104102000D01*
X155780000Y-109256000D02*
X155780000Y-107720000D01*
X155780000Y-105640000D02*
X155780000Y-104104000D01*
X155740000Y-109253000D02*
X155740000Y-107720000D01*
X155740000Y-105640000D02*
X155740000Y-104107000D01*
X155700000Y-109249000D02*
X155700000Y-107720000D01*
X155700000Y-105640000D02*
X155700000Y-104111000D01*
X155660000Y-109245000D02*
X155660000Y-107720000D01*
X155660000Y-105640000D02*
X155660000Y-104115000D01*
X155620000Y-109241000D02*
X155620000Y-107720000D01*
X155620000Y-105640000D02*
X155620000Y-104119000D01*
X155580000Y-109236000D02*
X155580000Y-107720000D01*
X155580000Y-105640000D02*
X155580000Y-104124000D01*
X155540000Y-109230000D02*
X155540000Y-107720000D01*
X155540000Y-105640000D02*
X155540000Y-104130000D01*
X155500000Y-109223000D02*
X155500000Y-107720000D01*
X155500000Y-105640000D02*
X155500000Y-104137000D01*
X155460000Y-109216000D02*
X155460000Y-107720000D01*
X155460000Y-105640000D02*
X155460000Y-104144000D01*
X155420000Y-109208000D02*
X155420000Y-107720000D01*
X155420000Y-105640000D02*
X155420000Y-104152000D01*
X155380000Y-109200000D02*
X155380000Y-107720000D01*
X155380000Y-105640000D02*
X155380000Y-104160000D01*
X155340000Y-109191000D02*
X155340000Y-107720000D01*
X155340000Y-105640000D02*
X155340000Y-104169000D01*
X155300000Y-109181000D02*
X155300000Y-107720000D01*
X155300000Y-105640000D02*
X155300000Y-104179000D01*
X155260000Y-109171000D02*
X155260000Y-107720000D01*
X155260000Y-105640000D02*
X155260000Y-104189000D01*
X155219000Y-109160000D02*
X155219000Y-107720000D01*
X155219000Y-105640000D02*
X155219000Y-104200000D01*
X155179000Y-109148000D02*
X155179000Y-107720000D01*
X155179000Y-105640000D02*
X155179000Y-104212000D01*
X155139000Y-109135000D02*
X155139000Y-107720000D01*
X155139000Y-105640000D02*
X155139000Y-104225000D01*
X155099000Y-109122000D02*
X155099000Y-107720000D01*
X155099000Y-105640000D02*
X155099000Y-104238000D01*
X155059000Y-109108000D02*
X155059000Y-107720000D01*
X155059000Y-105640000D02*
X155059000Y-104252000D01*
X155019000Y-109094000D02*
X155019000Y-107720000D01*
X155019000Y-105640000D02*
X155019000Y-104266000D01*
X154979000Y-109078000D02*
X154979000Y-107720000D01*
X154979000Y-105640000D02*
X154979000Y-104282000D01*
X154939000Y-109062000D02*
X154939000Y-107720000D01*
X154939000Y-105640000D02*
X154939000Y-104298000D01*
X154899000Y-109045000D02*
X154899000Y-107720000D01*
X154899000Y-105640000D02*
X154899000Y-104315000D01*
X154859000Y-109028000D02*
X154859000Y-107720000D01*
X154859000Y-105640000D02*
X154859000Y-104332000D01*
X154819000Y-109009000D02*
X154819000Y-107720000D01*
X154819000Y-105640000D02*
X154819000Y-104351000D01*
X154779000Y-108990000D02*
X154779000Y-107720000D01*
X154779000Y-105640000D02*
X154779000Y-104370000D01*
X154739000Y-108970000D02*
X154739000Y-107720000D01*
X154739000Y-105640000D02*
X154739000Y-104390000D01*
X154699000Y-108948000D02*
X154699000Y-107720000D01*
X154699000Y-105640000D02*
X154699000Y-104412000D01*
X154659000Y-108927000D02*
X154659000Y-107720000D01*
X154659000Y-105640000D02*
X154659000Y-104433000D01*
X154619000Y-108904000D02*
X154619000Y-107720000D01*
X154619000Y-105640000D02*
X154619000Y-104456000D01*
X154579000Y-108880000D02*
X154579000Y-107720000D01*
X154579000Y-105640000D02*
X154579000Y-104480000D01*
X154539000Y-108855000D02*
X154539000Y-107720000D01*
X154539000Y-105640000D02*
X154539000Y-104505000D01*
X154499000Y-108829000D02*
X154499000Y-107720000D01*
X154499000Y-105640000D02*
X154499000Y-104531000D01*
X154459000Y-108802000D02*
X154459000Y-107720000D01*
X154459000Y-105640000D02*
X154459000Y-104558000D01*
X154419000Y-108775000D02*
X154419000Y-107720000D01*
X154419000Y-105640000D02*
X154419000Y-104585000D01*
X154379000Y-108745000D02*
X154379000Y-107720000D01*
X154379000Y-105640000D02*
X154379000Y-104615000D01*
X154339000Y-108715000D02*
X154339000Y-107720000D01*
X154339000Y-105640000D02*
X154339000Y-104645000D01*
X154299000Y-108684000D02*
X154299000Y-107720000D01*
X154299000Y-105640000D02*
X154299000Y-104676000D01*
X154259000Y-108651000D02*
X154259000Y-107720000D01*
X154259000Y-105640000D02*
X154259000Y-104709000D01*
X154219000Y-108617000D02*
X154219000Y-107720000D01*
X154219000Y-105640000D02*
X154219000Y-104743000D01*
X154179000Y-108581000D02*
X154179000Y-107720000D01*
X154179000Y-105640000D02*
X154179000Y-104779000D01*
X154139000Y-108544000D02*
X154139000Y-107720000D01*
X154139000Y-105640000D02*
X154139000Y-104816000D01*
X154099000Y-108506000D02*
X154099000Y-107720000D01*
X154099000Y-105640000D02*
X154099000Y-104854000D01*
X154059000Y-108465000D02*
X154059000Y-107720000D01*
X154059000Y-105640000D02*
X154059000Y-104895000D01*
X154019000Y-108423000D02*
X154019000Y-107720000D01*
X154019000Y-105640000D02*
X154019000Y-104937000D01*
X153979000Y-108379000D02*
X153979000Y-107720000D01*
X153979000Y-105640000D02*
X153979000Y-104981000D01*
X153939000Y-108333000D02*
X153939000Y-107720000D01*
X153939000Y-105640000D02*
X153939000Y-105027000D01*
X153899000Y-108285000D02*
X153899000Y-105075000D01*
X153859000Y-108234000D02*
X153859000Y-105126000D01*
X153819000Y-108180000D02*
X153819000Y-105180000D01*
X153779000Y-108123000D02*
X153779000Y-105237000D01*
X153739000Y-108063000D02*
X153739000Y-105297000D01*
X153699000Y-107999000D02*
X153699000Y-105361000D01*
X153659000Y-107931000D02*
X153659000Y-105429000D01*
X153619000Y-107858000D02*
X153619000Y-105502000D01*
X153579000Y-107778000D02*
X153579000Y-105582000D01*
X153539000Y-107691000D02*
X153539000Y-105669000D01*
X153499000Y-107595000D02*
X153499000Y-105765000D01*
X153459000Y-107485000D02*
X153459000Y-105875000D01*
X153419000Y-107357000D02*
X153419000Y-106003000D01*
X153379000Y-107198000D02*
X153379000Y-106162000D01*
X153339000Y-106964000D02*
X153339000Y-106396000D01*
X158560000Y-106680000D02*
G75*
G03*
X158560000Y-106680000I-2620000J0D01*
G01*
%TO.C,Q1*%
X142820000Y-117370000D02*
X142820000Y-113770000D01*
X138370000Y-115570000D02*
G75*
G03*
X142808478Y-117408478I2600000J0D01*
G01*
X142808478Y-113731522D02*
G75*
G03*
X138370000Y-115570000I-1838478J-1838478D01*
G01*
%TO.C,R1*%
X137160000Y-94920000D02*
X137160000Y-95870000D01*
X138080000Y-95870000D02*
X136240000Y-95870000D01*
X136240000Y-95870000D02*
X136240000Y-99710000D01*
X138080000Y-99710000D02*
X138080000Y-95870000D01*
X136240000Y-99710000D02*
X138080000Y-99710000D01*
X137160000Y-100660000D02*
X137160000Y-99710000D01*
%TO.C,J1*%
X125670000Y-102870000D02*
X125670000Y-105470000D01*
X125670000Y-102870000D02*
X128330000Y-102870000D01*
X125670000Y-105470000D02*
X128330000Y-105470000D01*
X127000000Y-100270000D02*
X128330000Y-100270000D01*
X128330000Y-100270000D02*
X128330000Y-101600000D01*
X128330000Y-102870000D02*
X128330000Y-105470000D01*
%TO.C,D2*%
X158475000Y-90190000D02*
X161565000Y-90190000D01*
X160020462Y-84640001D02*
G75*
G03*
X158475170Y-90189999I-462J-2989999D01*
G01*
X161564830Y-90190000D02*
G75*
G03*
X160019538Y-84640000I-1544830J2560000D01*
G01*
X162520000Y-87630000D02*
G75*
G03*
X162520000Y-87630000I-2500000J0D01*
G01*
%TO.C,R2*%
X144780000Y-94920000D02*
X144780000Y-95870000D01*
X145700000Y-95870000D02*
X143860000Y-95870000D01*
X143860000Y-95870000D02*
X143860000Y-99710000D01*
X145700000Y-99710000D02*
X145700000Y-95870000D01*
X143860000Y-99710000D02*
X145700000Y-99710000D01*
X144780000Y-100660000D02*
X144780000Y-99710000D01*
%TO.C,C1*%
X137895225Y-105205000D02*
X138395225Y-105205000D01*
X138145225Y-104955000D02*
X138145225Y-105455000D01*
X140700000Y-104100000D02*
X140700000Y-105640000D01*
X140700000Y-107720000D02*
X140700000Y-109260000D01*
X140740000Y-104100000D02*
X140740000Y-105640000D01*
X140740000Y-107720000D02*
X140740000Y-109260000D01*
X140780000Y-104101000D02*
X140780000Y-105640000D01*
X140780000Y-107720000D02*
X140780000Y-109259000D01*
X140820000Y-104102000D02*
X140820000Y-105640000D01*
X140820000Y-107720000D02*
X140820000Y-109258000D01*
X140860000Y-104104000D02*
X140860000Y-105640000D01*
X140860000Y-107720000D02*
X140860000Y-109256000D01*
X140900000Y-104107000D02*
X140900000Y-105640000D01*
X140900000Y-107720000D02*
X140900000Y-109253000D01*
X140940000Y-104111000D02*
X140940000Y-105640000D01*
X140940000Y-107720000D02*
X140940000Y-109249000D01*
X140980000Y-104115000D02*
X140980000Y-105640000D01*
X140980000Y-107720000D02*
X140980000Y-109245000D01*
X141020000Y-104119000D02*
X141020000Y-105640000D01*
X141020000Y-107720000D02*
X141020000Y-109241000D01*
X141060000Y-104124000D02*
X141060000Y-105640000D01*
X141060000Y-107720000D02*
X141060000Y-109236000D01*
X141100000Y-104130000D02*
X141100000Y-105640000D01*
X141100000Y-107720000D02*
X141100000Y-109230000D01*
X141140000Y-104137000D02*
X141140000Y-105640000D01*
X141140000Y-107720000D02*
X141140000Y-109223000D01*
X141180000Y-104144000D02*
X141180000Y-105640000D01*
X141180000Y-107720000D02*
X141180000Y-109216000D01*
X141220000Y-104152000D02*
X141220000Y-105640000D01*
X141220000Y-107720000D02*
X141220000Y-109208000D01*
X141260000Y-104160000D02*
X141260000Y-105640000D01*
X141260000Y-107720000D02*
X141260000Y-109200000D01*
X141300000Y-104169000D02*
X141300000Y-105640000D01*
X141300000Y-107720000D02*
X141300000Y-109191000D01*
X141340000Y-104179000D02*
X141340000Y-105640000D01*
X141340000Y-107720000D02*
X141340000Y-109181000D01*
X141380000Y-104189000D02*
X141380000Y-105640000D01*
X141380000Y-107720000D02*
X141380000Y-109171000D01*
X141421000Y-104200000D02*
X141421000Y-105640000D01*
X141421000Y-107720000D02*
X141421000Y-109160000D01*
X141461000Y-104212000D02*
X141461000Y-105640000D01*
X141461000Y-107720000D02*
X141461000Y-109148000D01*
X141501000Y-104225000D02*
X141501000Y-105640000D01*
X141501000Y-107720000D02*
X141501000Y-109135000D01*
X141541000Y-104238000D02*
X141541000Y-105640000D01*
X141541000Y-107720000D02*
X141541000Y-109122000D01*
X141581000Y-104252000D02*
X141581000Y-105640000D01*
X141581000Y-107720000D02*
X141581000Y-109108000D01*
X141621000Y-104266000D02*
X141621000Y-105640000D01*
X141621000Y-107720000D02*
X141621000Y-109094000D01*
X141661000Y-104282000D02*
X141661000Y-105640000D01*
X141661000Y-107720000D02*
X141661000Y-109078000D01*
X141701000Y-104298000D02*
X141701000Y-105640000D01*
X141701000Y-107720000D02*
X141701000Y-109062000D01*
X141741000Y-104315000D02*
X141741000Y-105640000D01*
X141741000Y-107720000D02*
X141741000Y-109045000D01*
X141781000Y-104332000D02*
X141781000Y-105640000D01*
X141781000Y-107720000D02*
X141781000Y-109028000D01*
X141821000Y-104351000D02*
X141821000Y-105640000D01*
X141821000Y-107720000D02*
X141821000Y-109009000D01*
X141861000Y-104370000D02*
X141861000Y-105640000D01*
X141861000Y-107720000D02*
X141861000Y-108990000D01*
X141901000Y-104390000D02*
X141901000Y-105640000D01*
X141901000Y-107720000D02*
X141901000Y-108970000D01*
X141941000Y-104412000D02*
X141941000Y-105640000D01*
X141941000Y-107720000D02*
X141941000Y-108948000D01*
X141981000Y-104433000D02*
X141981000Y-105640000D01*
X141981000Y-107720000D02*
X141981000Y-108927000D01*
X142021000Y-104456000D02*
X142021000Y-105640000D01*
X142021000Y-107720000D02*
X142021000Y-108904000D01*
X142061000Y-104480000D02*
X142061000Y-105640000D01*
X142061000Y-107720000D02*
X142061000Y-108880000D01*
X142101000Y-104505000D02*
X142101000Y-105640000D01*
X142101000Y-107720000D02*
X142101000Y-108855000D01*
X142141000Y-104531000D02*
X142141000Y-105640000D01*
X142141000Y-107720000D02*
X142141000Y-108829000D01*
X142181000Y-104558000D02*
X142181000Y-105640000D01*
X142181000Y-107720000D02*
X142181000Y-108802000D01*
X142221000Y-104585000D02*
X142221000Y-105640000D01*
X142221000Y-107720000D02*
X142221000Y-108775000D01*
X142261000Y-104615000D02*
X142261000Y-105640000D01*
X142261000Y-107720000D02*
X142261000Y-108745000D01*
X142301000Y-104645000D02*
X142301000Y-105640000D01*
X142301000Y-107720000D02*
X142301000Y-108715000D01*
X142341000Y-104676000D02*
X142341000Y-105640000D01*
X142341000Y-107720000D02*
X142341000Y-108684000D01*
X142381000Y-104709000D02*
X142381000Y-105640000D01*
X142381000Y-107720000D02*
X142381000Y-108651000D01*
X142421000Y-104743000D02*
X142421000Y-105640000D01*
X142421000Y-107720000D02*
X142421000Y-108617000D01*
X142461000Y-104779000D02*
X142461000Y-105640000D01*
X142461000Y-107720000D02*
X142461000Y-108581000D01*
X142501000Y-104816000D02*
X142501000Y-105640000D01*
X142501000Y-107720000D02*
X142501000Y-108544000D01*
X142541000Y-104854000D02*
X142541000Y-105640000D01*
X142541000Y-107720000D02*
X142541000Y-108506000D01*
X142581000Y-104895000D02*
X142581000Y-105640000D01*
X142581000Y-107720000D02*
X142581000Y-108465000D01*
X142621000Y-104937000D02*
X142621000Y-105640000D01*
X142621000Y-107720000D02*
X142621000Y-108423000D01*
X142661000Y-104981000D02*
X142661000Y-105640000D01*
X142661000Y-107720000D02*
X142661000Y-108379000D01*
X142701000Y-105027000D02*
X142701000Y-105640000D01*
X142701000Y-107720000D02*
X142701000Y-108333000D01*
X142741000Y-105075000D02*
X142741000Y-108285000D01*
X142781000Y-105126000D02*
X142781000Y-108234000D01*
X142821000Y-105180000D02*
X142821000Y-108180000D01*
X142861000Y-105237000D02*
X142861000Y-108123000D01*
X142901000Y-105297000D02*
X142901000Y-108063000D01*
X142941000Y-105361000D02*
X142941000Y-107999000D01*
X142981000Y-105429000D02*
X142981000Y-107931000D01*
X143021000Y-105502000D02*
X143021000Y-107858000D01*
X143061000Y-105582000D02*
X143061000Y-107778000D01*
X143101000Y-105669000D02*
X143101000Y-107691000D01*
X143141000Y-105765000D02*
X143141000Y-107595000D01*
X143181000Y-105875000D02*
X143181000Y-107485000D01*
X143221000Y-106003000D02*
X143221000Y-107357000D01*
X143261000Y-106162000D02*
X143261000Y-107198000D01*
X143301000Y-106396000D02*
X143301000Y-106964000D01*
X143320000Y-106680000D02*
G75*
G03*
X143320000Y-106680000I-2620000J0D01*
G01*
%TO.C,R3*%
X152400000Y-100660000D02*
X152400000Y-99710000D01*
X151480000Y-99710000D02*
X153320000Y-99710000D01*
X153320000Y-99710000D02*
X153320000Y-95870000D01*
X151480000Y-95870000D02*
X151480000Y-99710000D01*
X153320000Y-95870000D02*
X151480000Y-95870000D01*
X152400000Y-94920000D02*
X152400000Y-95870000D01*
%TO.C,Q2*%
X158060000Y-117370000D02*
X158060000Y-113770000D01*
X153610000Y-115570000D02*
G75*
G03*
X158048478Y-117408478I2600000J0D01*
G01*
X158048478Y-113731522D02*
G75*
G03*
X153610000Y-115570000I-1838478J-1838478D01*
G01*
%TO.C,D1*%
X135615000Y-90190000D02*
X138705000Y-90190000D01*
X137160462Y-84640001D02*
G75*
G03*
X135615170Y-90189999I-462J-2989999D01*
G01*
X138704830Y-90190000D02*
G75*
G03*
X137159538Y-84640000I-1544830J2560000D01*
G01*
X139660000Y-87630000D02*
G75*
G03*
X139660000Y-87630000I-2500000J0D01*
G01*
%TD*%
M02*
